<?xml version="1.0" encoding="UTF-8"?>
<!DOCTYPE svg PUBLIC "-//W3C//DTD SVG 1.1//EN" "http://www.w3.org/Graphics/SVG/1.1/DTD/svg11.dtd">
<svg version="1.2" width="270.9mm" height="270.9mm" viewBox="0 0 27090 27090" preserveAspectRatio="xMidYMid" fill-rule="evenodd" stroke-width="28.222" stroke-linejoin="round" xmlns="http://www.w3.org/2000/svg" xmlns:ooo="http://xml.openoffice.org/svg/export" xmlns:xlink="http://www.w3.org/1999/xlink" xmlns:presentation="http://sun.com/xmlns/staroffice/presentation" xmlns:smil="http://www.w3.org/2001/SMIL20/" xmlns:anim="urn:oasis:names:tc:opendocument:xmlns:animation:1.0" xmlns:svg="urn:oasis:names:tc:opendocument:xmlns:svg-compatible:1.0" xml:space="preserve">
 <defs class="ClipPathGroup">
  <clipPath id="presentation_clip_path" clipPathUnits="userSpaceOnUse">
   <rect x="0" y="0" width="27090" height="27090"/>
  </clipPath>
  <clipPath id="presentation_clip_path_shrink" clipPathUnits="userSpaceOnUse">
   <rect x="27" y="27" width="27036" height="27036"/>
  </clipPath>
 </defs>
 <defs class="TextShapeIndex">
  <g ooo:slide="id1" ooo:id-list="id3"/>
 </defs>
 <defs class="EmbeddedBulletChars">
  <g id="bullet-char-template-57356" transform="scale(0.00048828125,-0.00048828125)">
   <path d="M 580,1141 L 1163,571 580,0 -4,571 580,1141 Z"/>
  </g>
  <g id="bullet-char-template-57354" transform="scale(0.00048828125,-0.00048828125)">
   <path d="M 8,1128 L 1137,1128 1137,0 8,0 8,1128 Z"/>
  </g>
  <g id="bullet-char-template-10146" transform="scale(0.00048828125,-0.00048828125)">
   <path d="M 174,0 L 602,739 174,1481 1456,739 174,0 Z M 1358,739 L 309,1346 659,739 1358,739 Z"/>
  </g>
  <g id="bullet-char-template-10132" transform="scale(0.00048828125,-0.00048828125)">
   <path d="M 2015,739 L 1276,0 717,0 1260,543 174,543 174,936 1260,936 717,1481 1274,1481 2015,739 Z"/>
  </g>
  <g id="bullet-char-template-10007" transform="scale(0.00048828125,-0.00048828125)">
   <path d="M 0,-2 C -7,14 -16,27 -25,37 L 356,567 C 262,823 215,952 215,954 215,979 228,992 255,992 264,992 276,990 289,987 310,991 331,999 354,1012 L 381,999 492,748 772,1049 836,1024 860,1049 C 881,1039 901,1025 922,1006 886,937 835,863 770,784 769,783 710,716 594,584 L 774,223 C 774,196 753,168 711,139 L 727,119 C 717,90 699,76 672,76 641,76 570,178 457,381 L 164,-76 C 142,-110 111,-127 72,-127 30,-127 9,-110 8,-76 1,-67 -2,-52 -2,-32 -2,-23 -1,-13 0,-2 Z"/>
  </g>
  <g id="bullet-char-template-10004" transform="scale(0.00048828125,-0.00048828125)">
   <path d="M 285,-33 C 182,-33 111,30 74,156 52,228 41,333 41,471 41,549 55,616 82,672 116,743 169,778 240,778 293,778 328,747 346,684 L 369,508 C 377,444 397,411 428,410 L 1163,1116 C 1174,1127 1196,1133 1229,1133 1271,1133 1292,1118 1292,1087 L 1292,965 C 1292,929 1282,901 1262,881 L 442,47 C 390,-6 338,-33 285,-33 Z"/>
  </g>
  <g id="bullet-char-template-9679" transform="scale(0.00048828125,-0.00048828125)">
   <path d="M 813,0 C 632,0 489,54 383,161 276,268 223,411 223,592 223,773 276,916 383,1023 489,1130 632,1184 813,1184 992,1184 1136,1130 1245,1023 1353,916 1407,772 1407,592 1407,412 1353,268 1245,161 1136,54 992,0 813,0 Z"/>
  </g>
  <g id="bullet-char-template-8226" transform="scale(0.00048828125,-0.00048828125)">
   <path d="M 346,457 C 273,457 209,483 155,535 101,586 74,649 74,723 74,796 101,859 155,911 209,963 273,989 346,989 419,989 480,963 531,910 582,859 608,796 608,723 608,648 583,586 532,535 482,483 420,457 346,457 Z"/>
  </g>
  <g id="bullet-char-template-8211" transform="scale(0.00048828125,-0.00048828125)">
   <path d="M -4,459 L 1135,459 1135,606 -4,606 -4,459 Z"/>
  </g>
  <g id="bullet-char-template-61548" transform="scale(0.00048828125,-0.00048828125)">
   <path d="M 173,740 C 173,903 231,1043 346,1159 462,1274 601,1332 765,1332 928,1332 1067,1274 1183,1159 1299,1043 1357,903 1357,740 1357,577 1299,437 1183,322 1067,206 928,148 765,148 601,148 462,206 346,322 231,437 173,577 173,740 Z"/>
  </g>
 </defs>
 <g>
  <g id="id2" class="Master_Slide">
   <g id="bg-id2" class="Background"/>
   <g id="bo-id2" class="BackgroundObjects"/>
  </g>
 </g>
 <g class="SlideGroup">
  <g>
   <g id="container-id1">
    <g id="id1" class="Slide" clip-path="url(#presentation_clip_path)">
     <g class="Page">
      <g class="Graphic">
       <g id="id3">
        <rect class="BoundingBox" stroke="none" fill="none" x="0" y="4060" width="27093" height="18971"/>
        <defs>
         <clipPath id="clip_path_1" clipPathUnits="userSpaceOnUse">
          <path d="M 0,4060 L 27092,4060 27092,23030 0,23030 0,4060 Z "/>
         </clipPath>
        </defs>
        <g clip-path="url(#clip_path_1)">
         <path fill="rgb(255,0,0)" stroke="none" d="M 13306,4053 C 13493,4053 13679,4053 13866,4053 14999,4052 16132,4057 17264,4085 17287,4085 17310,4086 17333,4086 17829,4099 18325,4114 18821,4132 18852,4133 18852,4133 18883,4134 24160,4324 24160,4324 25637,5462 25667,5489 25667,5489 25697,5517 27225,6965 27030,10168 27090,12097 27101,12522 27100,12946 27099,13371 27099,13514 27099,13658 27099,13802 27101,14844 27069,15885 26989,16925 26987,16955 26985,16985 26983,17016 26722,20475 26722,20475 25663,21601 25649,21617 25635,21633 25621,21649 24160,23221 20845,22879 18894,22951 18668,22960 18442,22967 18216,22975 18151,22977 18086,22979 18021,22981 15697,23060 13367,23052 9006,22979 8941,22977 8876,22975 8811,22973 3608,22804 3608,22804 1319,21501 17,20074 119,17538 30,15728 28,15676 25,15625 22,15573 -8,14969 -5,14365 -5,13762 -5,13640 -5,13519 -5,13397 -9,12318 20,11243 103,10167 105,10137 107,10107 109,10076 369,6609 369,6609 1402,5515 1420,5495 1439,5475 1457,5455 2823,4013 5608,4249 7408,4166 7436,4165 7464,4163 7492,4162 9429,4073 11367,4051 13306,4053 L 13306,4053 Z "/>
         <path fill="rgb(255,254,254)" stroke="none" d="M 10847,9510 C 10964,9549 11045,9581 11148,9641 11175,9657 11202,9673 11230,9689 11273,9714 11273,9714 11317,9740 11348,9758 11378,9776 11409,9794 11472,9831 11536,9868 11599,9905 11745,9990 11892,10074 12038,10158 12095,10192 12153,10225 12210,10258 12252,10282 12252,10282 12296,10307 12611,10489 12926,10671 13242,10853 13270,10869 13299,10886 13328,10903 13385,10936 13442,10969 13500,11002 13644,11085 13787,11168 13931,11251 14208,11410 14484,11570 14760,11731 14989,11865 15220,11998 15451,12130 15708,12276 15964,12424 16220,12574 16497,12736 16776,12896 17054,13057 17198,13139 17341,13222 17484,13305 17558,13347 17632,13390 17706,13432 17748,13457 17790,13481 17832,13505 17832,13532 17832,13558 17832,13585 17814,13595 17797,13604 17778,13614 17334,13862 17334,13862 16895,14117 16728,14216 16560,14313 16392,14410 16363,14427 16333,14444 16303,14461 16213,14513 16123,14565 16033,14617 15917,14683 15801,14750 15686,14817 15643,14841 15643,14841 15599,14866 15409,14976 15220,15086 15031,15197 14802,15331 14573,15463 14343,15594 13883,15856 13424,16120 12967,16388 12722,16531 12476,16672 12229,16813 12007,16939 11786,17067 11565,17196 11539,17211 11513,17227 11486,17242 11347,17323 11347,17323 11208,17405 11155,17436 11102,17466 11049,17497 11021,17513 10993,17530 10964,17546 10900,17580 10900,17580 10847,17580 10847,14917 10847,12254 10847,9510 L 10847,9510 Z "/>
        </g>
       </g>
      </g>
     </g>
    </g>
   </g>
  </g>
 </g>
</svg>